<?xml version="1.0" encoding="UTF-8"?>
<svg id="" class="custom-logo menu-image replaced-svg svg-replaced-0" overflow="visible" version="1.2" viewBox="0 0 130 44" xml:space="preserve" xmlns="http://www.w3.org/2000/svg">
  
    <path d="M35.7,26.4h-4v-1.2H41v1.2h-4V37h-1.3V26.4z" fill="#3155C7"/>
    <path d="M44.9,25.1h8.6v1.2h-7.2v4.1h6.5v1.2h-6.5v4.2h7.3V37h-8.6V25.1z" fill="#3155C7"/>
    <path d="m63 37.2c-0.9 0-1.6-0.2-2.4-0.5-0.7-0.3-1.3-0.7-1.9-1.3-0.5-0.5-0.9-1.2-1.2-1.9s-0.4-1.5-0.4-2.4c0-0.8 0.1-1.6 0.4-2.4 0.3-0.7 0.7-1.4 1.2-2s1.2-1 1.9-1.3 1.5-0.5 2.4-0.5c0.5 0 1 0 1.5 0.1 0.4 0.1 0.8 0.2 1.2 0.4s0.7 0.4 1 0.6 0.6 0.5 0.9 0.8l-0.9 1c-0.5-0.5-1.1-0.9-1.6-1.2-0.6-0.3-1.3-0.5-2.1-0.5-0.7 0-1.3 0.1-1.8 0.4-0.6 0.2-1 0.6-1.5 1-0.4 0.4-0.7 1-1 1.5-0.2 0.6-0.3 1.2-0.3 1.9s0.1 1.3 0.3 1.9 0.6 1.1 1 1.5 0.9 0.8 1.5 1c0.6 0.3 1.2 0.4 1.8 0.4 0.8 0 1.5-0.1 2.1-0.4s1.2-0.7 1.7-1.3l0.9 0.9c-0.3 0.3-0.6 0.6-1 0.9-0.3 0.3-0.7 0.5-1.1 0.7s-0.8 0.3-1.2 0.4c-0.4 0.2-0.9 0.3-1.4 0.3z" fill="#3155C7">
    </path>
    <path d="M71.4,25.1h1.3l7.5,9.5v-9.5h1.3V37h-1.1l-7.6-9.7V37h-1.3V25.1z" fill="#3155C7"/>
    <path d="m91.6 37.2c-0.9 0-1.7-0.2-2.5-0.5-0.7-0.3-1.4-0.8-1.9-1.3-0.5-0.6-0.9-1.2-1.2-1.9s-0.4-1.5-0.4-2.3 0.1-1.6 0.4-2.3 0.7-1.4 1.2-2 1.2-1 1.9-1.3 1.6-0.5 2.5-0.5 1.7 0.2 2.5 0.5c0.7 0.3 1.4 0.8 1.9 1.3 0.5 0.6 0.9 1.2 1.2 1.9s0.4 1.5 0.4 2.3-0.1 1.6-0.4 2.3-0.7 1.4-1.2 2-1.2 1-1.9 1.3c-0.8 0.3-1.6 0.5-2.5 0.5zm0-1.3c0.7 0 1.3-0.1 1.9-0.4s1.1-0.6 1.5-1 0.7-1 1-1.5c0.2-0.6 0.3-1.2 0.3-1.9s-0.1-1.3-0.3-1.9-0.6-1.1-1-1.5-0.9-0.8-1.5-1c-0.6-0.3-1.2-0.4-1.9-0.4s-1.3 0.1-1.9 0.4-1.1 0.6-1.5 1-0.7 1-1 1.5c-0.1 0.5-0.2 1.1-0.2 1.8s0.1 1.3 0.3 1.9 0.6 1.1 1 1.5 0.9 0.8 1.5 1c0.5 0.4 1.1 0.5 1.8 0.5z" fill="#3155C7">
    </path>
    <path d="M101.6,25.1h9v2.3h-6.4V30h5.6v2.4h-5.6V37h-2.6V25.1z" fill="#3155C7"/>
    <path d="M114.1,25.1h2.6V37h-2.6V25.1z" fill="#3155C7"/>
    <path d="M123.8,27.5h-3.6v-2.4h9.8v2.4h-3.6V37h-2.6V27.5z" fill="#3155C7"/>
    <polygon points="26.8 6.4 26.8 12.8 17.6 18.1 17.6 44 22.6 41.1 22.6 21 31.7 15.7 31.7 9.3" fill="#3155C7">
    </polygon>
    <polygon points="5 6.4 0 9.3 0 15.7 9.2 21 9.2 41.1 14.1 44 14.1 18.1 5 12.8" fill="#3155C7"/>
    <path d="m22.3 6.4c0-3.6-2.9-6.4-6.4-6.4s-6.5 2.9-6.5 6.4c0 3.6 2.9 6.4 6.4 6.4s6.5-2.8 6.5-6.4z" fill="#3155C7">
    </path>
    <polygon points="26.8 12.8 17.6 18.1 22.6 21 31.7 15.7" fill="#0242B9"/>
    <polygon points="5 12.8 14.1 18.1 9.2 21 0 15.7" fill="#0242B9"/>
  
</svg>
